<svg enable-background="new 0 0 100.8130493 85.1260071" height="290.473751" viewBox="0 0 100.8130493 85.1260071" width="344.265186" xmlns="http://www.w3.org/2000/svg" xmlns:xlink="http://www.w3.org/1999/xlink"><linearGradient id="a"><stop offset="0" stop-color="#cf202e"/><stop offset="1" stop-color="#cf202e"/></linearGradient><radialGradient id="b" cx="49.992443" cy="64.165878" gradientUnits="userSpaceOnUse" r="38.216629" xlink:href="#a"/><radialGradient id="c" cx="99.68457" cy="74.500794" gradientUnits="userSpaceOnUse" r="1.115072" xlink:href="#a"/><path d="m63.4796143 62.9590149c-.5370483 1.1199951-1.1490479 2.1159973-1.8210449 2.9609985-.6679688.8450012-1.3579712 1.5190125-2.0509644 2.0050049-.6030273.4290161-1.1080322.7569885-1.5220337.6830139-.2669678-.0670166-.2319946-.5380249-.1989746-.8399963.0939941-.8680115.3709717-1.7470093.8259888-2.6100159.460022-.8840027 1.0300293-1.7089844 1.6920166-2.4509888.6719971-.7380066 1.4039917-1.3560181 2.1749878-1.8340149.6060181-.375 1.2069702-.6380005 1.7929688-.7789917-.1649781 1.0010071-.4660035 1.9639893-.8929444 2.8649903m7.2329711-19.6430054c-1.7340088-.2749939-2.9849854 1.0450134-3.5339966 2.3440247-.1940308.4559937-.25.690979-.4379883 1.2779846-.1870117.5800171-.2590332 1.0169983-.4030151 1.6140137-.1010132.4289856-.2579956 1.0969849-.3220215 1.3909912-.1189575.5409851-.1329956.625-.2849731 1.4440002-.151001.8120117-.25 1.3540039-.3580322 2.072998-.0829468.54599-.1669922.9979858-.25 1.5450134-1.2439575.2929993-2.5179443.7909851-3.7849731 1.4789734-1.3670044.7390137-2.6409912 1.7130127-3.7869873 2.8900146-1.1489868 1.1749878-2.144043 2.5629883-2.9540405 4.1199951-.8179932 1.5780029-1.3359985 3.3410034-1.5429688 5.2409973-.0250244.2330017-.0419922.4819946-.0499878.7420044-.1619873-.1390076-.3190308-.2919922-.4460449-.4809875-.242981-.3630066-.4169617-.7799988-.5349426-1.2870178-.1170044-.4960022-.1870117-1.1219788-.1820068-1.6130066.0039978-.5390015.0249939-.8859863.0629883-1.2419739.0440063-.40802.098999-.7890015.1690063-1.1400146.0400085-.2279968.0690002-.4370117.0969849-.6430054.0190125-.1349792.0360107-.2680054.0589905-.3979797.2470093-1.5200195.3569946-2.5390015.2059937-3.5760193-.098999-.6869812-.6539612-2.0069885-2.0449829-2.0509949-.1080017-.0039978-.2219849 0-.34198.0119934-.9349976.0890198-2.0310059.6010132-2.7019958 1.0670166-.8910217.6219788-1.7279968 1.3959961-2.4850159 2.3009949-.321991.3829956-.5780029.730011-.7890015 1.0559998.1350098-.4089966.3110046-.8170166.4830017-1.2149963.1080017-.2449951.2130127-.4880066.3080139-.7340088l.0350037-.0880127c.2289734-.5759888.4639893-1.1699829.5179749-1.6489868.0450134-.4309998-.0220032-.7820129-.2019958-1.0419922-.1479797-.2130127-.3329773-.375-.5570068-.4840088-.2149963-.0960083-.4339905-.144989-.6499939-.1459961-.1519775-.0029907-.2859802-.0010071-.3769836.0069885-.5370178.0469971-1.0169983.2130127-1.4250183.4830017-.3569946.2319946-.6609802.4819946-.940979.7720032-.2780151.3210144-.5190125.651001-.7090149.9779968-.2969971.4750061-.572998 1.1260071-.8439941 1.9869995-.2510071.8000183-.4920044 1.6920166-.7179871 2.6499939-.2210083.9260254-.4230042 1.882019-.6030273 2.8430176-.177002.947998-.3059998 1.7829895-.3819885 2.4759827-.0910034.8520203-.1570129 1.678009-.196991 2.4580078-.0429993.8110046-.0270081 1.5490112.0440063 2.1900024.0769958.6830139.2419739 1.2390137.4919739 1.6549988.3140259.5169983.8280029.756012 1.4930115.6889954l.0320129-.0039978c.125-.0159912.5559998-.0780029.9589844-.2179871.3730164-.1300049.9400024-.5339966 1.4200134-1.2860107.276001-.4309998.5579834-1.5650024.8970032-3.0029907.0789795-.3309937.151001-.6340027.2109985-.875 1.3280029-5.1799927 3.2539978-6.2669983 4.2059937-6.4660034-.0650024.5849915-.1329956 1.1700134-.197998 1.7520142-.0460205.7639771-.1010132 1.440979-.1180115 2.242981.0220032 1.5209961.1719971 2.3890076.3569946 3.1419983.2090149.8609924.598999 1.8999939 1.0710144 2.4440002.5570068.6380005 1.0950012 1.0559998 2.0629883.9989929l.0150146-.0009766.0090027-.0010071c.42099-.0589905.6349792-.0950012 1.0869751-.2839966.4609985-.2200012.6749878-.381012 1.0750122-.7660217.2860107-.2769775.4589844-.5439758.5780029-.8089905.1759644.3200073.3980103.6080017.6709595.8520203.4260254.3819885 1.0380249.5609741 1.81604.5349731l.0529785-.0019836c.0880127-.0050049.2739868-.0249939.8770142-.1060181.5490112-.0739746 1.21698-.2909851 1.9899902-.6399841.7540283-.3429871 1.6149902-.8760071 2.5599976-1.5859985.6610107-.4989929 1.3460083-1.1499939 2.0369873-1.9360046-.0679932 1.1040039-.1229858 2.1530151.3600464 3.5970154.197998.5949707.4559937 1.0809937.855957 1.6299744.4490356.6040039 1.1310425.9120178 2.0360107.9190063h.007019l.1040039-.0079956c.4320068-.0710144.7890015-.1830139 1.0889893-.3410034.3070068-.1629944.5969849-.3999939.8619995-.7019958.3200073-.3649902.5100098-.8359985.5720215-1.4030151.0179443-.1699829.0089722-.3659973-.0290527-.6009827-.0390015-.2260132-.1529541-.4020081-.2729492-.5859985-.0500488-.071991-.1010132-.1499939-.1530151-.2359924-.2990112-.5240173-.4890137-.9570007-.5759888-1.3250122-.2270508-.9589844-.2850342-1.7649841-.2420044-3.3160095.0199585-.7399902.0780029-1.5529785.1380005-2.3249817.0579834-.7579956.1439819-1.53302.2329712-2.3540039.0579834-.5320129.1170044-1.0670166.1749878-1.6000061.0200195-.1919861.0380249-.3569946.0570068-.5010071l.1090088.0010071c.3989868.006012.815979-.1319885 1.2310181-.4159851.4890137-.3410034.7860107-.960022.881958-1.8400269.0810547-.7519836-.1049805-1.3629761-.5519409-1.8179932-.276001-.2709961-.5830078-.5039978-.9130249-.6950073.0490112-.2849731.0960083-.5519714.1309814-.7989807.0490112-.3150024.1010132-.5889893.1530151-.8179932.0339966-.15802.065979-.3170166.0980225-.4770203.0269775-.1359863.0509644-.2729797.0799561-.4039917.0060425-.0279846.552002-2.5679932 1.6400146-6.3519897.177002-.6150208.2579956-1.085022.3010254-1.4819946.0619503-.5810244-.0790409-1.5560305-1.1710209-1.7280276m15.6160279 13.3330078c.0879517.3519897.1049805.7860107.0529785 1.322998-.0480347.5010071-.1439819 1.0599976-.2850342 1.6679993-.0059814.0240173-.782959 3.072998-1.0909424 4.5320129-.2440186 1.1629944-.394043 2.0690002-.5710449 3.1210022l-.0109863.0669861c-.1690063 1.0280151-.4309692 3.3070068-.5839844 4.9169922-.2990112 3.1100159-.3690186 3.848999-1.2230225 6.2460022-.8729858 2.447998-2.8670044 4.0720215-3.7999878 4.5930176-1.6859741.9419861-3.5859985 1.4329834-5.6500244 1.4750061h-.0169678l-.0159912-.0030212c-.0970459-.0109863-.2090454-.0189819-.3270264-.026001-.2219849-.0149841-.4769897-.0329895-.7210083-.0769958-2.1690063-.3890076-3.4199829-1.7649841-3.1859741-3.5469971.1229858-.9320068.8499756-1.5010071 1.7860107-1.3599854.8779907.1469727 1.6900024.2179871 2.4239502.2099915 2.25-.0249939 3.7940063-.769989 4.7180176-2.3190002.9630127-1.6130066 1.0800171-2.6730042 1.2420044-4.1409912.0209961-.1890259.0430298-.3870239.065979-.5920105.0910034-.7569885.1600342-1.4599915.2320557-2.1960144-.3640137.4820251-.7190552.8890076-1.0620117 1.2160034-.6950073.6610107-1.3330078 1.1670227-1.901001 1.5039978-.6790161.3980103-1.3439941.632019-1.9730225.6950073h-.0209961-.0219727c-1.0350342-.0230103-1.8330078-.4219971-2.3760376-1.1879883-.4769897-.6629944-.8439941-1.4980164-1.0869751-2.4850159-.2369995-.9620056-.3610229-1.9909973-.3690186-3.0650024-.0109863-1.0439758.0269775-2.0209961.1119995-2.9079895.2639771-2.7520142.8330078-4.9450073 1.6860352-6.5100098.9459839-1.743988 2.1499634-2.6259766 3.5739746-2.5929871.0759888 0 .184021.0119934.3870239.0339966.2579956.0360107.480957.1220093.6779785.256012.2180176.1389771.3939819.3459778.5380249.6309814.1489868.2990112.1989746.6670227.1549683 1.1230164-.0440063.4629822-.21698.9719849-.5319824 1.5529785-.28302.5400085-.5499878 1.1480103-.7910156 1.809021-.2059937.565979-.4140015 1.2479858-.6209717 2.019989-.2080078.7550049-.3540039 1.5670166-.4330444 2.4160156-.0159912.1349792-.0390015.4309998-.0639648.9069824-.026001.3829956-.0220337.7799988.0119629 1.2220154.0289917.3779907.1019897.7019958.2150269.9619751.0609741.1520081.2600098.256012.3220215.2690125.0839844.0190125.1749878.0369873.2889404.0369873.2000122-.0009766.4050293-.0649719.6090088-.1940002.1560059-.0979919.5350342-.4229736.9810181-1.0239868.3129883-.4230042.9130249-1.3079834 1.40802-2.4809875.230957-.5490112.5279541-1.4450073.84198-2.3950195.3519897-1.0690002.9719849-3.1659851 1.3280029-4.04599.2299805-.5610046.4819946-1.0540161.7730103-1.5079956.2619629-.40802.6929932-.8300171 1.0280151-1.0500183.5019531-.3320007 1.0579834-.5039978 1.6789551-.4719849.1430054.0079956.2930298.0419922.4899902.0910034.2650146.0700073.4960327.2120056.6870117.4219971.1849976.1959838.3250122.4779967.420044.8609923m1.0889892-.4530029c-.0599976-.25-.1050415-.5610046.0169678-.9790039.0530396-.1869812.2280273-.6219788.3300171-1.0309753.1220093-.5380249.1710205-1.0770264.0390015-1.5780029-.1149902-.4420166-.1430054-1.085022-.0200195-1.4510193.1879883-.5569763.7040405-.8549805 1.0700073-.9169922.5560303-.0939941 1.1080322-.0580139 1.5780029.1730042.5120239.2510071.9459839.8609924 1.0560303 1.303009.2329712.9309998.1279907 1.6759949.0189819 2.2709961-.1259766.7099915-.4219971 1.3569946-.7410278 1.8880005-.2249756.3769836-.6029663.7049866-.927002.9369812-.3969727.2850037-1.0499878.3940125-1.7369995.1430054-.3139648-.1149903-.625-.5289918-.68396-.7590028m11.4249878 13.1660156c-.164978 1.1919861-.651001 2.1820068-1.4390259 2.9490051-.7349854.7139893-1.5929565 1.2819824-2.5429688 1.6889954-.9379883.3979797-1.9020386.6600037-2.8670044.7810059-.8720093.1059875-1.6340332.1299744-2.2620239.0679932-.0579834-.0039978-.1149902-.0130005-.1690063-.0200195-1.5189819-.1940002-2.552002-.6759949-3.1549683-1.4899902-.6010132-.8110046-.8439941-1.651001-.7260132-2.5010071.1400146-1.0069885.6669922-1.4960022 1.085022-1.7279968.5079956-.2829895.947998-.4039917 1.3449707-.3699951l.0460205.006012c.3969727.04599.8560181.25 1.3989868.6199951.3660278.2539978.8549805.4219971 1.4530029.5010071.8079834.1029968 1.4210205.0609741 1.8140259-.1360168.2859497-.1350098.4509888-.2860107.4689941-.4249878.0100098-.0620117.0279541-.1880188-.19104-.3959961-.2659912-.2539978-.6300049-.5010071-1.0809937-.730011-.4779663-.2399902-1.0009766-.4899902-1.6049805-.7640076-.6199951-.276001-1.1950073-.6029968-1.7089844-.9700012-.5570068-.3919983-1.0079956-.8549805-1.3430176-1.3729858-.3809814-.598999-.5159912-1.3059998-.4050293-2.1040039.1270142-.9129944.5300293-1.8540039 1.1930542-2.7950134.631958-.894989 1.4169922-1.7070007 2.3349609-2.4089966.9130249-.6940002 1.9310303-1.2460022 3.0270386-1.6359863 1.131958-.3999939 2.2559814-.5249939 3.3379517-.3640137 1.0430298.1540222 1.8470459.6289978 2.3870239 1.4040222.5380249.7829895.7160034 1.8629761.5300293 3.2059937-.0900269.6479797-.3250122 1.2399902-.6990356 1.7630005-.315979.4379883-.9169922.9360046-2.0230103.7609863-.7509766-.1119995-1.0509644-.5180054-1.1719971-.8420105-.105957-.2649841-.190979-.5529785-.2539673-.8529968-.0430298-.196991-.0549927-.4530029-.1830444-.5869751-.0780029-.0680237-.2290039-.1200256-.4169922-.105011 0 0-.1709595-.0100098-.5429688.0969849-.3280029.1000061-.6560059.2440186-.9700317.4260254-.3259888.1879883-.6239624.4249878-.8800049.6989746-.2049561.2200012-.3280029.4500122-.3670044.684021-.0189819.1130066-.0299683.3070068.2109985.539978.2990112.28302.6830444.5680237 1.1480103.8470154.4660034.2860107 1.0029907.571991 1.6400146.875.6699829.3190002 1.2750244.6830139 1.7930298 1.0820007.5569458.4219971 1.0130005.9129944 1.3599854 1.4530029.3969729.6199949.542969 1.3429868.4299929 2.1470029m-65.414978-4.9869995c-.5160217.802002-1.03302 1.4239807-1.5820007 1.9029846-.6119995.5370178-1.0700073.8260193-1.6549988 1.1480103-.2550049.1399841-.4640198.2200012-.6410217.2680054.0870056-.4790039.2480164-1.1210022.4710083-1.6540222.3309937-.7929993.756012-1.5739746 1.2600098-2.321991.5979919-.8819885 1.0820007-1.4589844 1.5740051-1.8739929.3429871-.2890015.6429749-.4620056.868988-.5.5019836-.0859985.5270081.5629883.526001.6940002-.0039978.7829895-.4450074 1.7460022-.821991 2.3370056m3.3280029-6.5680237c-.4060059-.2769775-.8610229-.4379883-1.3530273-.4759827-.4199829-.0280151-.9329834-.0069885-1.3129883.0549927l-.0289917.0039978c-.8170166.1380005-1.6710205.4259949-2.276001.7610168-.6210022.3379822-1.2270203.7729797-1.8000183 1.2949829-.4830017.4410095-1.0409851.9770203-1.5169983 1.6119995-.3099976.4140015-.901001 1.2460022-1.3800049 2.1710205-.6479797 1.2469788-1.2119751 2.6989746-1.7209778 4.4309998-.3190002 0-1.0150146-.1419983-1.3340149-.2050171-.2259827-.0449829-.3039856-.0589905-.3529968-.0610046l-.1350098-.0029907c1.4770203-6.1419983 2.506012-9.6180115 3.2590027-12.0279846.40802-1.1760254.8180237-2.3510132 1.2260132-3.5270081.3209839-.6669922.5130005-1.5780029.4830017-1.9989929-.0830078-1.2320251-.9330139-2.4760132-2.4440002-2.1420288-1.6040039.355011-2.5469971 2.3980103-3.8240051 6.8960266-1.0750122 3.7879944-1.6849976 6.1999817-2.5570068 10.2939758-.3779907 1.8650208-.7550049 3.730011-1.1289978 5.5950012-.0570068.2799988-.1130066.5610046-.1679993.8399963-.1269836.5800171-.1940002.7470093-.3999939.7929993-.1029968.0230103-.2319946-.0479736-.2909851-.2849731-.1340027-.5210266-.2440186-1.6000061-.3250122-2.9860229-.1010132-3.1869812-.3659973-6.4909973-.2510071-10.67099.0660095-2.3890076.0620117-2.7730103-.0929871-3.3850098-.302002-1.1829834-1.7680054-1.8869934-3.3670044-1.4830017-1.598999.4060059-2.0679932 2.2020264-2.9899902 4.6490173-.6220093 1.6600037-1.5660095 4.6059875-2.5040283 7.4660034-.8789978 2.9620056-1.9129944 6.5889893-1.9129944 6.5889893-.065979.2510071-.1279907.5020142-.1940002.7529907-.0629883.25-.1269836.5-.1900024.7510071-.2289734.6140137-.3089905.7359924-.4619751.7789917-.1540222.0429993-.2410278-.0839844-.2880249-.269989-.0969849-.3720093-.0820007-2.7489929-.052002-4.0019836.059021-2.5540161.3080139-5.32901.5470276-7.809021.1359863-1.789978.5950012-4.9199829.7329712-6.7109985.0480042-.5400085.0960083-1.1069946.1090088-1.4909973.0299988-1.1409912-.0469971-1.6910095-.54599-2.2550049-.7789918-.6869812-1.729004-.6349793-2.8259888-.3849793-1.7650146.401001-3.0870056 1.493988-2.9300232 2.0950012.0240173.0899963.1159973.1769714.2070007.3089905.2680054.3880005.4070129.6069946.5150146.9989929.1260071.4609985.1879883 1.1000061.1849976 2.1300049-.0390015.9240112-.0769958 1.8500061-.1170044 2.7749939-.2219849 2.7900085-.5580139 7.8170166-.6489868 11.2550049-.07901 2.9689941.0219727 5.0310059.2549744 7.9670105.1190186 1.4759827.4309998 2.6819763.6000061 3.3299866.2990112 1.1610107.8880005 2.4490051 1.90802 2.7070007.7579956.1919861 1.34198.1480103 2.3379822-.1140137.9169922-.2389832 2.3040161-1.1139832 2.6100159-2.493988.3899841-1.5369873.7809753-3.071991 1.1729736-4.6099854.3480225-1.6410217 1.1370239-4.5469971 1.8080139-7.0700073.3869934-1.5010071.8909912-3.1809998 1.1619873-4.052002.1610107-.4410095.2400208-.5599976.3430176-.5859985.1040039-.0270081.1659851.0069885.1900024.1029968.0130005.0469971.0270081.1170044.0310059.2799988.0039978.1029968.0069885.2070007.0109863.3110046.0079956.3139954.0150146.6289978.0220032.9450073.0759888 3.0859985.6669922 8.394989 1.2219849 10.5679932.3619995 1.4199829.4660034 3.1749878 2.6560059 3.4970093 1.0110168.1519775 1.8510132-.1340027 1.8510132-.1340027 1.6149902-.4909973 2.0350037-1.4219971 2.3959961-3.0090027.2359924-1.006012.9660034-3.7750244 1.3659973-5.5570068.1210022-.5400085.2390137-1.0599976.3559875-1.5710144.2960205.0950012 1.6400146.3050232 2.2010193.3520203.0069885.1699829.0149841.2590027.0329895.367981.0150146.105011.0289917.1950073.0410156.2839966.019989.1360168.0359802.2620239.065979.3990173.0379944.1799927.0769958.3590088.1159973.5360107.2340088.9329834.5970154 1.7289734 1.0770264 2.3649902.4649963.6210022.947998 1.0400085 1.6159973 1.4069824.6329956.3450012 1.71698.4970093 2.7449951.3910217.144989-.006012.2789917-.0169983.4190063-.0420227l.0809937-.0149841c.0709839-.0140076.1390076-.0280151.2099915-.0410156l.0020142-.0099792c.1529846-.03302.3389893-.0800171.4830017-.1210022 1.6139832-.4649963 3.690979-1.8980103 4.4399719-4 .2920227-.8269958.1290283-1.3450012-.0589905-1.6340027-.2059937-.3139954-.54599-.506012-.8890076-.4989929-.1159973.0029907-.2290039.0139771-.3410034.0319824-.7019958.1130066-1.2339783.5110168-1.7029724.8619995-.4230042.3180237-.8210144.6180115-1.3210144.7140198-.5669861.1080017-.95401.0950012-1.2820129-.0680237-.3649902-.1789856-.4889832-.3129883-.6380005-.6859741-.0889893-.2230225-.1369934-.4760132-.1779785-.8070068.9159851-.2350159 1.9759827-.7019958 2.8289795-1.2550049.9750061-.6340027 1.8650208-1.4079895 2.6420288-2.2999878.7729797-.8940125 1.4199829-1.8800049 1.9229736-2.9410095.4820251-1.0150146.8330078-2.3600159.9150085-3.5119934.0639954-.8829956-.0289917-1.6150208-.2779846-2.1730042-.2550049-.5509949-.5900269-.9700012-.9909974-1.2400208" fill="url(#b)"/><path d="m99.5210571 74.4503174h.1210327c.1399536 0 .2539673-.0480042.2539673-.1600037 0-.1020203-.0739746-.1669922-.2340088-.1669922-.0679932 0-.1159668.0059814-.1409912.0119934zm-.007019.6170044h-.2539673v-1.1000061c.0999756-.0130005.2409668-.03302.4219971-.03302.2069702 0 .2999878.03302.3740234.0880127.0679932.0469971.1149902.1269836.1149902.2340088 0 .1340027-.1010132.2200012-.2280273.2609863v.0140076c.1069946.0329895.1600342.1199951.1940308.2669983.0339966.1679993.0599976.2269897.0799561.2690125h-.2680054c-.032959-.0420227-.0529785-.1350098-.0869751-.2690125-.0200195-.1130066-.0869751-.1669922-.2269897-.1669922h-.1210327v.4360046zm.1680298-1.4480286c-.4760132 0-.8450317.3950195-.8450317.8770142 0 .4890137.3690186.8779907.8570557.8779907.4769897.007019.8389893-.3889771.8389893-.8699951 0-.4899902-.3619995-.8850098-.8450317-.8850098zm.0120239-.2200012c.6239624 0 1.1189575.4820251 1.1189575 1.0970154 0 .6170044-.4949951 1.1059875-1.125 1.1059875s-1.131958-.4889832-1.131958-1.1059875c0-.6149902.5019531-1.0970154 1.131958-1.0970154z" fill="url(#c)"/><path d="m74.3522339 34.1817932c.8879395-1.1759949 1.0719604-2.7319946.8409424-3.7019958-.2729492-1.1429749-1.0809937-1.2330017-1.3239746-1.2330017-.1380005 0-.2750244.0240173-.40802.0740051.0150146-.3329773-.0239868-.6289978-.131958-.8599854-.1929932-.4240112-.5939941-.6860046-1.0469971-.6860046-.0690308 0-.1490479.0289917-.2250366.0469971.1420288-1.0910034.2310181-2.1919861.2150269-3.3120117-.092041-6.0419922-2.5310059-11.6879883-6.8690186-15.894989-1.3789673-1.3380127-2.9119873-2.4589844-4.5410156-3.3919983-1.0079956-1.7399902-2.3509521-3.0780029-4.7409668-3.6170044-.868042-.1220093-1.3129883-.1229858-1.8510132-.0090027l-.1350098-.1499939c-.9879761-.9769897-2.5009766-1.1950073-3.4059753-1.3250122l-.4309998-.0639954c-.3479919-.0319824-.7850037-.0570068-1.2789917-.0570068-.756012 0-1.9020081.0610046-3.0599976.355011-3.6159973.9160156-5.973999 2.7229919-7.6060181 4.901001-1.789978 1.0369873-3.4599915 2.3129883-4.9449768 3.8429871-4.9940186 5.1460266-7.0280151 12.0750122-6.1679993 18.6900024l-.1110229-.0089722c-.4179993 0-.8729858.3079834-1.0480042.6869812-.1049805.2310181-.1469727.5249939-.1309814.8560181-.1300049-.0460205-.2680054-.0710144-.4100037-.0710144-.2399902 0-1.0499878.0889893-1.3240051 1.2319946-.230011.9720154-.0449829 2.5299988.8410034 3.7059937-.131012.3890076-.0580139.8220215.1820068 1.184021l.0119934.0310059c.1140137.1729736.2409973.3190002.4580078.5169983 1.2829895 1.1229858 2.9509888 1.7409973 4.6999817 1.7409973.1880188 0 .3699951-.0339966.5540161-.0469971.8429871 1.2309875 1.8200073 2.3989868 2.9329834 3.4789734 4.2470093 4.1180115 9.8430176 6.3850098 15.7550049 6.3850098 6.1750183 0 11.9399719-2.4389954 16.2389832-6.868988.9100342-.9400024 1.7109985-1.9559937 2.4370117-3.0140076.2260132.0230103.4470215.0599976.6749878.0599976 1.7490234 0 3.4169922-.6170044 4.71698-1.756012.2040405-.1859741.3330078-.3349915.4460449-.5130005l.0100098-.0269775c.2369995-.3619997.3099976-.7929995.177002-1.1800234" fill="#fff"/><path d="m70.3674316 25.0119019c0 11.3910217-9.2350464 20.6270142-20.6260071 20.6270142-11.3919983 0-20.6260071-9.2359924-20.6260071-20.6270142 0-11.3919983 9.2340088-20.6259766 20.6260071-20.6259766 11.3909608 0 20.6260071 9.2339783 20.6260071 20.6259766" fill="#fff"/><path d="m49.6445923 5.1352234c-5.4100037 0-10.4660034 2.1380005-14.2319946 6.0230103-7.6130066 7.8450012-7.42099 20.4239807.427002 28.0379944 3.7219849 3.6080017 8.625 5.5960083 13.8080139 5.5960083 5.4109802 0 10.4639587-2.1390076 14.2289734-6.0200195 3.6879883-3.802002 5.6740112-8.8129883 5.5930176-14.1099854s-2.2180176-10.2440186-6.019043-13.9300232c-3.7219849-3.6099854-8.6250001-5.5969849-13.8059693-5.5969849m.0030212 41.3599853c-5.6280212 0-10.9520264-2.1589966-14.9930115-6.0769958-8.5220032-8.2689819-8.730011-21.927002-.4639893-30.446991 4.0899963-4.2160034 9.5789795-6.5390015 15.4539795-6.5390015 5.6270142 0 10.9500122 2.1579895 14.9909668 6.0780029 4.1270142 4.0029907 6.4490356 9.3739929 6.5380249 15.1260071.0869751 5.7519836-2.0709839 11.1929932-6.0750122 15.3209839-4.0880126 4.2160035-9.5759887 6.5379944-15.4509582 6.5379944" fill="#453635"/><path d="m73.149292 34.5827942c-.382019.2400208-1.19104.3850098-1.4210205.2410278-.1260376-.0800171.3399658-.1480103.7559814-.3630066 2.2380371-1.131012 1.835022-4.6860046 1.1719971-3.9440002-.4790039.6019897-1.1069946 1.2340088-2.3070068 1.1950073 1.0870361-1.2660217 1.1940308-3.0440063.8190308-2.730011-.7819824.8110046-2.1459961 3.5849915-8.1140137 2.625.164978-.2109985.3430176-.4140015.5380249-.6059875-.3050537-.1820068-.6119995-.4720154-.9250488-.9350281-.9109497-1.4389954-1.6900024-1.6809998-2.1569824-1.8119812.7630005-.7319946 1.2739868-1.506012 1.7369995-2.3800049 1.5449829-3.302002 1.3670044-6.8930054 1.1990356-7.8389893-.1800537-1.4609985-.5530396-3.7460022-1.7010498-5.8780212-1.302002-2.4259949-2.572998-6.8549805-6.9469604-8.3429871-.8920288-.04599-1.3580322.0010071-2.1400146.3439941-.0780029-.1539917-.8150024-.7630005-.8950195-.9020081-.4630127-.4189758-1.8269653-.7919922-2.4369812-.992981-1.2559814-.0220032-2.3619995-.335022-3.7479858.039978-5.8680115 1.5859985-8.4849854 4.5169983-10.2189941 9.9060059-.1450195.4470215-.3460083 1.9030151-.3699951 2.3470154.0529785-.151001-1.90802 5.7969971-.605011 9.0589905.2390137.2739868.2619934.79599.506012 1.0670166.6170044 1.4419861 1.6040039 2.3289795 2.196991 3.6519775-1.9249878.07901-2.6000061 3.0190125-2.6560059 3.2660217-6.0400085 1-7.4110107-1.7970276-8.197998-2.6100159-.3739929-.3179932-.2680054 1.4630127.8200073 2.7279968-1.2000122.0400085-1.8280029-.5929871-2.3070068-1.1950073-.6640015-.742981-1.0679932 2.8140259 1.17099 3.9430237.4160156.2160034.8840027.2839966.7550049.3629761-.2279968.1440125-1.0379944 0-1.42099-.2409973-.178009-.1099854-.2399902.1730042-.0450134.3730164 5.7610168 3.8259888 8.4140015-.3829956 9.2920227-.5039978 3.177002.9129944 8.8109741-1.3300171 6.3099976-3.2669983-.6800232-1.0620117-1.7050171-2.8850098-1.7430115-4.9880066-.1409912-1.1809998-.0039978-1.54599-1.3009949-1.4380188.4589844-1.4339905.9320068-2.690979.4559937-4.8709717-.0859985.0299988-.1749878.1099854-.2399902.1719971 2.5610046-2.4990234 7.6089783-2.7980042 10.3699951-5.5270081.3590088-.6230164 1.7730103-.8309937 2.1119995-1.4769897-.3150024 2.2449951-1.3160095 4.2200012-3.394989 6.2059937 0 0 1.4629822.0029907 2.625-.8260193 1.9829407-1.4129944 2.9109802-3.1339722 4.2779846-4.617981.006958-.072998.3850098-.4089966.3689575-.5.2250366.1130066.6620483.473999.8080444.6990051 1.6149902 2.4989929.302002 1.8869934 2.0899658 4.1600037.1040039.1199951.2980347.6380005.3970337.7630005.3909912.7329712.5750122 1.1839905 1.072998 1.8599854.6400146.4419861.5139771 1.1889954.8900146 2.4649963-.1119995 1.5830078-.4370117 2.8160095-1.4910278 3.519989-.0570068 1.3770142-1.2210083 4.5770264-1.2210083 4.5770264.1049805.3169861-1.2219849 2.4319763 1.9100342 3.0690002.8209839.1679993 2.0619507.0029907 3.117981-.184021.0839844-.6809998.3129883-1.3259888.6549683-1.9239807-.026001.1929932-.0449829.3889771-.0449829.5859985 0 .54599.1019897 1.0690002.2850342 1.5629883l.0959473-.0270081c.8780518.1210022 3.5310059 4.3320007 9.2920532.5050049.1939693-.1999815.1329952-.4840086-.0469975-.3720091" fill="#cf202e"/><path d="m56.7377319 39.1187134c-.2390137-.5539856-.4000244-.9269714-.3900146-1.4169922-.0310059-.0769958-.118042-.1499939-.2330322-.2030029l.0090332.5700073-1.0050049-.4129944c-.0969849.1369934-.1489868.3320007-.118042.6099854.3280029 1.9360046 1.2370605 2.9349976 1.4720459 3.1800232.2420044.2529907.4320068.276001.6430054.2919922.2630005.0220032.4429932-.0599976.6069946-.2369995.3619995-.5360108-.545044-1.3690186-.9849854-2.3820191" fill="#00a0dd"/><path d="m46.3364258 39.7582092-.5450134-.6309814c-.3760071 2.32901-1.2380066 2.9440002-.9670105 3.5369873.0870056.184021.2839966.3399963.2839966.3399963.1360168.0840149.2620239.1220093.382019.1260071.1889954-.0010071.3869934-.0449829.5359802-.2179871.6400146-.7839966 1.0840149-2.0950012 1.223999-2.9410095.0299988-.1799927.0320129-.3630066.0110168-.5379944z" fill="#00a0dd"/><path d="m44.4649048 38.6477966-.8910217-.2129822-.1089783-.5429993c-.0680237.0749817-.1280212.1619873-.1790161.2630005-.0929871.355011-.1669922.6809998-.5180054 1.45401-.3869934.8609924-1.5249939 1.7630005-.3670044 2.1059875.3730164.0929871.5980225-.0540161.75-.1900024.6960144-.6300049 1.3330078-2.0589905 1.6150208-2.9240112.0489807-.1569824.0820007-.3199768.1069946-.4879761z" fill="#00a0dd"/><path d="m53.5394897 39.7919922-1.0550537-.5599976c.3179932 1.8480225.9860229 3.1560059 1.3610229 3.6270142.1469727.1719971.3460083.2810059.5720215.3200073.1479492.0059814.2539673-.0130005.3839722-.07901 0 0 .2800293-.1300049.3500366-.3200073.2149658-.6009827-.7870483-1.5939941-1.0440063-3.8459778z" fill="#00a0dd"/><path d="m49.3293152 43.3980103c1.1069946.2790222 2.0949707-.5739746 2.1159973-.8649902.0139771-.2290039-.5599976-1.1489868-.7740173-1.3529968-.1300049-.1260071-.59198-.446991-1.2030029-.2359924-.3370056.1139832-.9960022.7850037-.9830017 1.4109802.0079955.5110167.8440246 1.0429992.8440246 1.0429992" fill="#00a0dd"/><path d="m41.7580261 15.6347046c3.1409912-.9419861 4.4530029-3.427002 7.4049988-5.480011-.4909973.0660095-1.0950012.3420105-1.5069885.5769958-2.4920044 1.427002-3.2770081 2.0470276-4.4389954 2.8480225-1.1679993.8049927-2.6740112 1.7659912-3.7640076 2.1439819 0 0 .7789917.427002 2.3049927-.0889892m14.20401-12.8340149c-.9570313-.1339722-1.44104-.117981-2.2250366.223999-.0889892-.3209839-.2219849-.5379944-.3619995-.6799927-.8599854-.8529968-2.4199829-.9539795-3.1829834-1.0839844-.901001-.0859985-2.4709778-.1119995-3.9689941.2680054-5.6950073 1.4440002-8.2369995 5.1849976-9.8580017 10.6309814-.3289795 1.1010132-.6479797 2.6849976-.8399963 4.1790161-.7049866 1.6199951-2.0429993 5.8139954.70401 9.8769836.492981.7330017 2.1210022 2.7619934 2.5449829 3.875.5890198 2.6830139-2.7909851 1.0800171-5.1669922 3.4890137 0 0-1.9549866 2.5350037-5.7430115 2.0189819-.6459961-.1089783-1.2269897-.2999878-1.690979-.6789856.0570068.0889893.1260071.1690063.2649841.2980042 2.4040222 2.1019897 5.9430237 1.802002 7.9560242.0629883.4419861-.3809814.4549866-.6210022 1.9629822-.6229858 2.6239929-.0030212 4.9850159-.1930237 6.3559875-2.1970215-1.065979-1.3899841-1.5469971-1.8779907-1.9609985-2.7359924-.0009766-.4349976-.1329956-1-.4749756-1.723999-.2180176-2.7120056-.5020142-3.0669861-.4570007-4.4259949-.1080017-1.7340088-.0270081-3.7369995 1.7720032-4.4779968 1.8079834-.7449951 2.2909851-.5130005 5.3719788-2.1119995 5.6880188-2.9510193 5.8269958-6.5690002 5.2390137-7.0230103 0 0-1.322998 2.3210144-3.0090027 3.7850037-2.5190125 2.1849976-5.7229919 3.0029907-9.1069946 4.2810059-3.4020081 1.2850037-3.8099976 2.5849915-3.8099976 2.5849915-.8600159-4.8779907 2.0369873-7.70401 2.0369873-7.70401-.2890015-.098999-1.7489929 1.6490173-2.3970032 2.6520081.723999-3.1749878 1.526001-5.1029968 2.3309937-6.6889954.2109985-.3880005.6930237-1.1220093 1.1240234-1.6719971.9049988-1.0220032 1.2989807-1.4420166 2.6569824-2.348999.8500061-.5710144 1.7900085-1.1029968 2.9510193-1.4110107 2.5329894-.669983 6.3279723-.6159974 7.8349608.6560057.4089966.3470154.5950317.901001.5950317.901001s.7299805-.42099 1.2469482-.5769958c.7340088-.2220154 1.5980225-.0029907 2.1420288.2179871 2.9890137 1.3250122 3.6849976 4.6920166 5.9450073 7.5190125-2.2299803-4.5610048-2.6890257-8.4270021-6.7819823-9.3560182m4.1719971 10.5700073c1.2879639 1.6900024 4.4389648 4.6410217 4.1269531 9.2929993 0 0 .4020386-1.1799927.3510132-2.7160034-.2009888-6.8580017-4.0609741-7.1229858-6.9879761-12.7749939 0 0-.4420166 2.3210144 2.5100098 6.197998m13.0960083 21.5419922c-.0580444.0900269-.1270142.1700134-.2660522.2980042-2.4039917 2.1040039-5.9429932 1.803009-7.9559937.0630188-.3369751-.2900085-.4240112-.4970093-1.1109619-.5809937-.2410278-.5540161-.3730469-1.1540222-.3730469-1.7790222 0-.1990051.0170288-.3959961.0450439-.5910034-.276001.4820251-.4769897.9950256-.5880127 1.5320129-.0820313.0039978-.1660156.131012-.2509766.1549988-2.8740234 1.1140137-4.6110229.3659973-5.7470093-1.8869934.0999756-.1470032.7030029-.9290161.7799683-1.0760193.2319946-.5049744.934021-2.0179749 1.1229858-4.0709839.3260498-2.7319946.3130493-3.3600159.4130249-4.0310059.151001-1.303009.1469727-1.6369934-.132019-2.5690002-.2449951-.7649841-.4469604-1.0299988-.9029541-1.8999939-1.1380005-1.6470032-1.5700073-2.3510132-2.1090088-3.3999939-.3860474-.7520142-.5029907-1.1150208-.6199951-1.5450134 0 0-1.0410156 2.5350037-3.1870117 4.1260071-1.8349915 1.3630066-3.243988 1.8009949-4.2799988 1.6099854 1.5840149-.8970032 3.2189941-1.8779907 4.4230042-3.8499756 1.6889648-2.7600098 2.006958-5.5410156 2.006958-5.5410156s.1110229-.0090027.4530029.1799927c.2560425.1450195.7290039.631012.9650269 1.4960022.0889893.3269958.447998 1.5209961.8850098 2.5090027.7869873 1.776001 1.5339966 2.625 3.1289673 4.0970154 1.552002 1.4349976 3.06604 3.4679871 2.4960327 6.4559937-.3320313 1.7399902-1.1119995 2.821991-1.9719849 4.2879944-.2820435.5589905-.3740234.9809875-.3050537 1.5889893.2390137 1.598999 1.8250122.7320251 3.8190308 1.2220154-.1389771.1849976-.2650146.3769836-.3790283.572998.7380371.2269897 1.5140381.5870056 2.2050171 1.2879944 0 0 1.9550171 2.5360107 5.7449951 2.0209961.6459961-.1109927 1.2280273-.3029788 1.69104-.6820071" fill="#a51d36"/><path d="m60.0267334 20.7953186c-.3500366-.0809937-.4960327.1010132-.6590576.4380188-.0339966-.2569885-.0999756-.5159912-.1999512-.8569946-.2449951-.7660217-.4470215-1.0310059-.9030151-1.901001-1.1380005-1.6459961-1.5709839-2.3510132-2.1099854-3.3999939-.3850098-.7510071-.5029907-1.1150208-.6199951-1.5440063 0 0-1.0410156 2.5339966-3.1870117 4.1260071-1.8349915 1.3619995-3.243988 1.8009949-4.2799988 1.6089783 1.9719849-1.8829956 2.9719849-3.7579956 3.3389893-5.8619995-.8119812 1.1390076-2.190979 2.4120178-4.4429932 3.5800171-3.0809937 1.598999-3.5639954 1.3670044-5.3720093 2.1129761-1.2819824.5270081-1.6889954 1.6950073-1.7799988 2.9500122-.0169983-.197998-.0369873-.3779907-.0569763-.5270081-.0339966-.7149963-.2310181-.7039795-.2310181-.7039795s-1.1380005.0169983-1.2129822 1.7019958c-.0220032 1.039978.1619873 1.3330078.3139954 1.6879883.1719971.3990173.3670044.901001.6210022 1.0249939.4349976.2090149.625.0660095.6949768-.019989l.0240173.1440125.0249939.151001c.0110168.072998.0209961.1489868.0350037.2299805.3580017 2.276001.6929932 3.6459961 1.2749939 4.5150146.0450134.1129761.0950012.2299805.1490173.3469849.125.2170105.2469788.4150085.3599854.5920105.3800049.2940063.5700073.5960083.6109924.8919983l.0720215.0929871c.0709839.0910034.1439819.1849976.2219849.2870178l-.019989.026001c.0579834.0529785.1149902.1080017.1759949.1560059.2319946.2589722.4729919.4719849.6940002.6539917l-.1350098 4.414978.1450195.7220154.8909912.2130127.428009-.5620117 1.4440002 1.6719971 1.2519836-.4400024s.303009.125.5589905.348999c.2540283.223999 1.8330078.9240112 1.8330078.9240112l.7290039-.2839966.9259949-.6940002.3739929-.632019 1.5299683.8110046 1.4530029-2.1879883 1.1310425.4639893-.0770264-4.9989929c.1430054-.1520081.2800293-.303009.4100342-.45401.43396-.5.9400024-1.0299988 1.3200073-1.5969849l.0459595-.1020203.0130005-.0279846.0430298-.0979919.0269775-.0599976.0390015-.0880127.0360107-.0889893.0360107-.0840149.0440066-.1090091.032959-.0839844.0499878-.1289978.0320435-.0840149.0539551-.1470032.0300293-.0849915c.0180054-.053009.0380249-.1090088.0549927-.1640015l.0300293-.0879822c.0180054-.0570068.0379639-.1170044.0559692-.1750183l.0289917-.0950012c.0180054-.0610046.0360107-.1260071.0549927-.1900024l.0270386-.0969849c.0180054-.0650024.0349731-.1329956.052002-.1990051l.0279541-.1059875c.0170288-.0670166.0320435-.1370239.0490112-.2050171l.0250244-.1130066c.0159912-.0709839.0289917-.1439819.0440063-.2160034l.0239868-.1199951c.0139771-.0740051.0269775-.151001.0390015-.2269897l.0209961-.1220093c.0139771-.0839844.0250244-.1699829.0369873-.2559814l.0150146-.1069946c.0159912-.1220093.0300293-.2480164.039978-.3760071.0880127-.723999.1500244-1.2980042.1960449-1.7669983.1229858.0809937.4069824.1879883.7810059-.20401.46698-.3800049.8639526-1.5039978.8459473-2.4179993-.0169679-.8020019-.2119752-1.6809997-.6819459-1.7910156" fill="#f4d3d6"/><path d="m36.2859192 30.7654114c-.0010071-.2299805-.0250244-.5649719-.1360168-.9599915-.1180115-.5849915-.2359924-.9799805-.4729919-2.0059814-.2839966-1.2200012-1.0660095-1.2610168-1.3560181-1.2409973-.2259827.0169983-1.3889771.322998-2.17099.9719849-.8160095.6199951-.8280029 1.072998-.7250061 1.394989.0820007.256012.4750061.9700012.7790222 1.3560181.8659973 1.0639954 2.164978 1.3309937 1.6239929 1.7089844-.1570129.1710205-.1140137.4630127.0700073 1.125.1499939.40802.2939758.7690125.4399719 1.0010071.1419983.1950073.2690125.5809937.8220215.6329956.1399841.0119934.3079834.0030212.269989.0910034-.0709839.1629944-.1130066.3730164-.1059875.5469971.0099792.2279968.3209839.9370117.4589844 1.2860107.1600037.4069824.5379944 2.2139893 1.3840027 2.197998.3840027-.0039978.7650146-.1000061 1.0960083-.2070007.7829895-.2340088 1.7649841-.8829956 1.8859863-1.3980103.1759949-.7319946-.2919922-1.0369873-.5350037-1.3789978-.4619751-.4819946-1.4879761-1.4819946-1.7819824-1.7949829-.0679932-.0740051-.1530151-.1450195-.256012-.2470093-.2869873-.2829895-.1419983-.3670044-.0130005-.552002.1560059-.3200073-.2999878-1.2250061-.4159851-1.4030151-.1880188-.289978-.5050049-.625-.7879944-.6309814-.5930175-.0960084-.0760193-.1419984-.072998-.4940186" fill="#00a0dd"/><path d="m35.8815002 34.2687073c.7859802-.322998.7639771-.3329773 1.0529785-.565979.0920105-.071991.3220215.0489807.1090088.4060059-.0899963.144989-.2290039.0769958-.2009888.3979797.039978.4140015.9189758 1.0429993.3259888 1.1620178-.5369873.1089783-.8450012-.8870239-.8860168-1.0299988-.0449829-.1400146-.2819824.0139771-.3989868.0009766-.2539978-.0249939-.4620056-.1799927-.0019837-.3710022" fill="#453635"/><path d="m34.1865234 30.1902161c.0739746.5620117.5169983 1.1990051.8819885.8460083.2309875-.2229919-.2120056-.2839966-.5230103-1.5849915-.2009887-.8450012-.4169921.3049927-.3589782.7389832" fill="#453635"/><path d="m35.4596252 31.4703064c-.3590088.0380249-.7910156.0680237-.9780273.3080139-.1859741.2380066-.2149963.302002-.0829773.5329895.1309814.2340088.1949768.0400085.4029846-.1470032.2090149-.1889954.4630127-.2939758.6329956-.3199768.1900024-.0280151.4219971-.1270142.4890137-.3340149.0499878-.1600036-.1270142-.0740051-.4639893-.0400085" fill="#fff"/><path d="m64.2037964 34.2770996c.3009644-.0009766.7219849-.4419861.9129639-.7269897.1170044-.1789856.6409912-1.0849915.3359985-1.3760071-.1640015-.164978-.2059937-.2149963.0449829-.4559937.1069946-.098999.1940308-.17099.2650146-.242981.3049927-.309021 1.6149902-1.7340088 1.9249878-2.0700073.1669922-.2260132.7050171-.6499939.4710083-1.2510071-.1790161-.4100037-1.4619751-1.0920105-2.1409912-1.3500061-.3789673-.1589966-.8049927-.29599-1.098999-.3169861-.6690063-.07901-1.2050171 1.8739929-1.3569946 2.2729797-.1329956.3440247-.315979 1.1430054-.3129883 1.3680115 0 .1690063.0559692.375.1389771.5320129.0490112.0869751-.1339722.0799866-.2849731.0939941-.6000366.0559998-.8989868.4509888-1.0130005.5929871-.1430054.1329956-.3370361.5150146-.4750366.9170227-.164978.6489868-.1119995.914978.0640259 1.0799866.6119995.3670044-.6890259.5239868-1.6119995 1.7479858-.3330078.3760071-.7960205 1.0580139-.8720093 1.3110046-.0960083.3139954-.177002.6730042.8140259 1.3460083.7439575.5859985 2.1669922.9159851 2.414978.9309998.3140259.0180054.9769897.1919861 1.2230225-1.006012.2030029-1.0069885.2769775-1.3079834.3689575-1.7569885.092041-.5419922.1470337-.9689941.098999-1.131012-.0249635-.2909849-.5219728-.4759825.0890502-.5090025" fill="#00a0dd"/><path d="m63.3754272 34.138916c-.8920288-.0569763-.8630371-.1419983-1.1600342-.3409729-.0980225-.0630188-.4829712.1299744-.2069702.3779907.0949707.0830078.302002.3280029.2229614.6269836-.105957.3860168-.6729736 1.125-.117981 1.052002.6309814-.0809937.7789917-.973999.848999-1.1049805.0709839-.1340027.1779785-.1880188.315979-.2059937.2659914-.0320128.5499879-.377014.097046-.4050292" fill="#453635"/><path d="m65.1901855 30.4089966c-.1780396.3870239-.3100586.90802-.8250122.6340027-.6470337-.3439941.1619873-.8619995.657959-1.3859863.4640503-.4899903.3049927.4490051.1670532.7519836" fill="#453635"/><path d="m64.4813843 31.5820007c-.3060303-.2609863-.6130371-.539978-.9260254-.5299988-.3150024.0110168-.434021.059021-.4979858.3170166-.0630493.2579956.1229858.1829834.414978.223999.2930298.0400085.6110229.2479858.7620239.3670044.164978.1329956.4799805.2319946.5639648.0899963.0820313-.1409911-.0319824-.2220153-.3169555-.4680175" fill="#fff"/><path d="m46.9683228 31.278595s-.4390259-1.0809937-.8890076-1.0509949c.7929993-.0079956 1.8329773.1589966 2.618988.0980225.1239929-.007019.3739929-.1070251.4970093-.1170044 1.2259827-.1280212 2.6690063.2229919 3.7949829-.1130066-.3840332.3649902-.6199951 1.2470093-1.1749878 1.5239868-.5960083.2980042-1.9760132.3840027-2.8349915.3330078-.8690185-.0490112-1.4040222-.3540039-2.0119933-.6740112" fill="#fff"/><g fill="#cf202e"><path d="m41.8890076 25.4805908c0-.1309814.0859985-.2309875.2449951-.2309875.1300049.0039978.3029785.1000061.3009949.2340088.0059814.1699829-.1750183.2810059-.3080139.276001-.1569825-.0010071-.2420045-.1100159-.2379761-.2790223"/><path d="m43.104126 26.2972107c0-.1389771.1339722-.2849731.2789917-.2799988.1470032-.0089722.3029785.1380005.3029785.2810059-.0019836.1220093-.1599731.230011-.3089905.230011-.1359863.0100097-.2739868-.1109925-.2729797-.2310181"/><path d="m44.1319275 24.7829895c.0009766-.1089783.1689758-.2459717.3279724-.2449951.1010132.0020142.2650146.1329956.2630005.2530212-.0579834.196991-.1559753.2809753-.2639771.2809753-.2090149-.0039977-.3310241-.0859985-.3269958-.2890014"/><path d="m45.3760071 25.8421021c.0049744-.1439819.0709839-.2689819.2449951-.2689819.1419983.0029907.25.1269836.2479858.2619934 0 .1490173-.1119995.2929993-.2539978.2770081-.171997-.0000001-.2389831-.1350099-.2389831-.2700196"/><path d="m46.5882263 24.54599c.0019836-.1429749.0949707-.2539978.2569885-.2539978.1659851.006012.2640076.1110229.2600098.2480164-.0010071.1409912-.098999.2569885-.2680054.2569885-.1610107.0010071-.25-.1210022-.2489929-.2510071"/><path d="m52.3259277 24.6159973c.0239868-.1489868.1019897-.2349854.2649536-.2049866.1400146.0320129.2260132.1459961.2189941.3040161-.0279541.1359863-.1589966.1869812-.3109741.1549988-.1489867-.027008-.1940307-.1510009-.1729736-.2540283"/><path d="m53.9630127 24.9172058c.0239868-.1199951.125-.2229919.2399902-.2029724.1430054.0269775.2249756.1599731.1989746.2890015-.0250244.1399841-.1450195.2369995-.2869873.2099915-.1210327-.024994-.1790161-.1539918-.1519775-.2960206"/><path d="m56.1409912 24.7153015c.0299683-.1459961.1429443-.2179871.3429565-.1799927.1539917.0270081.217041.1340027.1890259.28302-.0310059.1569824-.1290283.2829895-.2869873.2529907-.2010498-.0370177-.2730102-.197998-.2449951-.356018"/><path d="m54.8765869 25.9013062c.0319824-.1679993.1709595-.242981.355957-.2139893.1430054.0310059.2330322.1719971.2030029.3170166-.0269775.1380005-.1619873.2460022-.2969971.2189941-.1939696-.0360107-.2869872-.184021-.2619628-.3220214"/><path d="m56.5837402 26.0213928c.0309448-.1629944.1689453-.2319946.3319702-.1999817.1519775.0209961.2609863.1459961.2280273.2999878-.0280151.1450195-.1800537.2460022-.3200073.2189941-.1669921-.0299987-.2720336-.1699828-.2399902-.3190002"/></g><path d="m44.6216125 21.2785034c-.8060303.2270203-1.40802.8470154-1.651001 1.4680176-.0020142.1799927.447998.3659973.4609985.4370117.2159729.0609741.9549866-.0690002 1.21698-.0650024.8800049.0090027 1.8789978-.3960266 1.6270142-.8990173 0-.0000001-.8470153-1.1669922-1.6539917-.9410096" fill="#fff"/><path d="m56.0281982 22.7922058c.2229614-.3559875-.7660522-1.6839905-1.3960571-1.6209717-.6309814.0639954-1.1019897.2999878-1.6009521 1.071991l-.0170288.2980042c.2369995.3970032.9089966.6820068 1.7020264.6789856.2550049-.0010071.5-.0319824.7189941-.0859985.0130005-.2479859.3739624.0159911.5930175-.3420106" fill="#fff"/><path d="m49.5599976 43.2185974c.6719971.1710205 1.3009949-.196991 1.4039917-.6759949.0740051-.3439941-.0319824-.6589966-.1479797-.8739929-.1130066-.2090149-.2320251-.3280029-.4760132-.4840088-.243988-.1719971-.6199951-.1390076-.7390137-.098999l-.1069947.0490112c-.664978.2590027-1.0619812 1.79599.0660096 2.0839844m-5.8649903-9.1749878c-.0190125.9639893-.0280151 1.9230042-.0469971 3.2299805.1049805.1720276.2409973.3740234.4249878.631012.3200073.4450073.7799988-1.0539856 1.3359985-.7409973.5939941.3380127.5629883 1.3869934 1.1990051 1.8850098.3779907.2969971 1.0799866-1.3850098 1.4499817-.4660034.4000244.9949951 1.1160278 1.2229919 1.8930054 1.618988.3460083-.3049927.8540039-.3469849 1.2780151-.848999.3989868-.4689941.6369934-.9490051.9309998-1.0400085.4549866-.1399841.7219543.980011 1.2129822.802002.8010254-.2939758.6599731-1.7689819 1.4019775-1.9679871.3760376-.1019897.4370117.5450134.882019.6130066.4439697.0669861.8670044-1.4869995 1.0949707-2.132019.1160278-.3199768.2780151-.4129944.5270386-.3179932.3499756.1329956.3720093.605011.4039917 1.4169922.0490112 1.1400146.5739746 2.2330017 1.210022 2.9940186.6359863.7630005-.9810181.3399963-1.6140137-1.3099976-.3950195-1.026001-.2860107-1.0360107-.5790405-.506012 0 0-.5449829.9429932-.8969727 1.0370178-.4489746.1219788-.8770142-.5390015-.8770142-.5390015s-.5269775 1.8339844-1.4309692 1.8379822c-.8469849.0029907-1.1310425-.901001-1.3309937-.5509949-.151001.2609863-.3380127.6480103-1.098999.9249878.4069824.3130188.7599792.6340027.9129944 1.197998v.0010071c.2929993 1.3399963-.7030029 2.1870117-1.8739929 2.2749939-.8450012.0570068-1.8690186-.2999878-2.1400146-1.0929871-.2969971-1.0109863.3280029-1.9320068.9360046-2.3680115-.5610046-.1479797-1.0090027-.5309753-1.3359985-1.0090027 0 0-.4769897.6560059-1.1789856.5310059-.4490051-.0799866-1.0500183-.9609985-1.2650146-1.7139893-.0109863-.0339966-.4949951.6619873-1.0669861.5679932-.7640076-.125-.7550049-.6860046-1.125-1.2349854-.0810242-.1220093-.355011-.5190125-.4120178-.1760254-.0429993.2750244-.1359863.65802-.3469849 1.0810242-.3900146.7799988-1.5150146 1.6479797-2.0079956 1.3190002.4399719-.1790161 1.1759949-1.0509949 1.4019775-1.8310242.2520142-.8699951.3139954-1.6869812.2210083-2.5379944-.0740051-.6789856.5979919-.3049927 1.0429993.1610107l.0220032-.4400024c.0270081-.4859924.0310059-1.0320129.0350037-1.5539856.0019836-.2290039-.1040039-.6610107-.3720093-.9700012-.2779846-.3320007-.7049866-1.0220032-.946991-1.3740234 0 0-.2850037-.4530029-.4670105-.789978-.1650085-.309021-.3190002-.6650085-.5429993-1.2940063-.1829834-.5230103-.3800049-1.302002-.4880066-2.2749939-.1149902-1-.0950012-1.230011-.125-1.8699951.132019.6059875.3260193 1.6069946.3980103 1.9239807.32901 1.447998.6040039 2.1170044 1.1109924 2.9920044.5079956.9129944 1.1549988 1.6400146 1.7660217 2.2820129.3589783.3769836 1.1009827.9909973 1.571991 1.368988.6319885.5069885.9119873.7330017 1.6239929 1.1820068.631012.3979797 1.7900085 1.2049866 3.3789978 1.1849976 1.4960022-.0169983 2.3089905-.6029968 2.7969971-.8840027 1.0440063-.605011 1.5880127-1.0809937 2.3150024-1.7610168.8359985-.7809753 1.2609863-1.1719971 1.7669678-1.7659912.6589966-.7689819 1.2650146-1.5889893 1.8120117-3.5239868.2990112-1.059021.4920044-2.2960205.6149902-2.9850159.0170288.2440186.0530396.5240173-.0219727 1.4770203-.0720215.6919861-.1430054 1.3249817-.2949829 1.9589844-.2190552.9240112-.4190063 1.5419922-.7850342 2.2130127-.3779907.6940002-.4779663.7539978-1.1129761 1.7049866-.4429932.6300049-.4620361.6539917-.4800415 1.132019-.0149536 1.9989929-.4589844 4.743988-.8059692.4069824-2.197998 1.8670044-4.0879822 3.0429993-5.8789978 3.0639954-1.7590025.0190124-3.5969847-1.1449891-6.0229796-3.1449891m10.6539917-13.3649902c-.3690186.1209717-.9450073.6429749-1.1459961.946991-.2490234.3760071-.40802 1.053009-.7290039 1.0639954-.1240234-.0440063-.0060425-.3240051-.1929932-.303009-.2420044.0540161-.3890076.2660217-.3260193.5160217.0469971.125.1560059.2209778.32901.2399902.5750122.0759888.6629639-.4559937.8829956-.7610168.18396-.2519836.5650024-.6429749.7689819-.7579956.1879883-.1080017.4650269-.1919861.7020264-.0069885.1369629.118988.0009766.3779907-.1019897.4309998-.2630005.019989-.5130005-.0759888-.6370239-.0490112-.125.0270081-.3129883.3650208-.3400269.7860107.2770386.1109924.342041-.0979919.6150513-.1019897.4389648-.007019.8709717.2809753 1.0949707.0599976.2249756-.2230225.2189941-.631012.21698-.8059998.3740234.0149841.5430298.5429993.3870239.8150024-.1259766.1429749-.427002.1149902-.4249878.3819885 1.2730103.256012 1.3930054-.2749939 1.4920044-.5620117.0700073-.2330017.0429688-.4229736-.0640259-.7389832-.3740234-.9460145-1.5079955-1.4869996-2.5269775-1.1539918m-11.7910156 2.4159851c.223999.118988.7050171.3500061 1.085022.2399902.0439758-.1439819-.0810242-.2160034-.1620178-.2179871-.2380066-.0090027-.4079895-.2220154-.4029846-.3210144.0299988-.3259888.3649902-.8519897.7609863-1.0599976.3600159-.2559814.6390076-.118988.7449951.0800171-.0079956.1569824-.0639954.276001-.197998.3059998-.2070007.0429993-.3569946-.1340027-.5119934-.0670166-.2900085.3059998-.1759949.6719971-.0709839.7980042.1029968.1260071.2259827.1750183.269989.1340027.1950073-.2479858.6629944-.2420044 1.1340027-.20401.2009888-.1419983.2129822-.4839783.2669983-.7769775.3359985-.3800049.5050049.3869934.7279968.6919861.1459961.197998.3039856.4360046.5039978.4570007.3399963.0350037.7839966-.2409973.6159973-.7399902-.098999-.1289978-.368988.1309814-.4759827.0449829-.40802-.3869934-.0400085-1.1789856-.8870239-1.6019897-.9059753-.45401-2.3099976-.29599-2.8719788.4089966-.2200012.2740173-.4570007.5780029-.6329956 1.0410156-.085022.3089904-.1670227.6269835.1039734.7869872m8.6460266 3.4339905c-.5550232-.1659851-.6850281.4290161-1.25.428009-.7910156 0-.9560242-.5079956-1.3770142-.4639893-.3439941.0369873-.5239868.5629883-.7590027.6000061-.1879883-.0390015-.1489868.2789917.0889893.3399963.4770203.118988.3720093-.2790222.6860046-.1690063.1849976.0709839.223999.3899841.757019.6319885.5319824.2430115 1.0599976-.0449829 1.5369873-.4769897.302002-.2929993.8720093-.2709961.7250061-.4530029-.1249999-.0599976-.2180175-.381012-.4079894-.4370117m1.1549988-7.2369995c.0369873.1540222.5819702.0020142.8379517-.0969849.1960449-.0760193.3600464-.1620178.6080322-.2140198.1719971-.0359802.4190063-.0599976.5869751-.0619812.3859863-.0010071.6359863.0039978.9689941.0579834.5250244.0870056 1.5159912.6060181 1.5970459.3780212.0899658-.4259949-.2820435-.7690125-.5670166-.9219971-.7009888-.3780212-1.7709961-.5740051-2.7290039-.1870117-.3190308.1530151-.4279785.2820129-.7319946.4869995-.2080078.1400147-.5950318.3699952-.5709839.5589906m-3.7860108 11.1570129c.1229858-.006012.6029968-.053009.7279968-.0629883 1.223999-.1140137 2.3420105.2029724 3.4729919-.1220093-.3900146.3609924-.7059937.9259949-1.2649841 1.1990051-.5970154.2909851-1.6900024.2929993-2.5490112.2330017-.867981-.059021-1.5759888-.5320129-2.1829834-.8600159-.1650085.4899902.0979919.6799927.473999 1.0140076.427002.3809814 1.0910034.901001 2.0939941.928009 1.4509888.0369873 2.5950012-.1040039 3.3229675-1.303009.2230225-.3930054.8240356-1.2009888 1.447998-1.5.3510132-.1660156 1.1520386-.5410156 1.0209961-.7480164-.2379761-.3049927-.7119751-.2509766-1.0499878-.1739807-.2589722.0509949-.3369751.5249939-.7689819.5599976-1.0189819.1300049-2.0119934-.2250061-3.269989-.1849976-.9060059.0249939-1.6190186.2359924-2.5880127.3129883-.9320068.072998-1.2569885-.4199829-2.1329956-.526001-.3980103-.052002-.4719849.178009-.1700134.5580139.28302.2909851.776001.5669861 1.1660156.5610046.7940065.0019838 1.4630128.1669924 2.2500001.1149904m-2.5239868-11.3430176c-.2180176-.0549927-.3450012-.1419983-.6230164-.1739807-.1719971-.0190125-.4219971-.0350037-.5880127-.026001-.3849792.0209961-.5769958.0189819-.9639893.1180115-.5159912.1309814-1.4750061.6989746-1.571991.4749756-.0840149-.2980042.071991-.5679932.2669983-.7609863.6860046-.2220154 1.2519836-.3519897 2.1289978-.697998.2789917.0079956.5589905.053009.8250122.1489868.2849731.1159973.5009766.276001.7619934.4389954.2139893.1330261.6309814.3400269.6040039.5230103-.0540159.1560057-.5760191.0260008-.8399962-.0450136" fill="#453635"/></svg>